<?xml version="1.0" standalone="no"?>
<!DOCTYPE svg PUBLIC "-//W3C//DTD SVG 20010904//EN"
 "http://www.w3.org/TR/2001/REC-SVG-20010904/DTD/svg10.dtd">
<svg version="1.0" xmlns="http://www.w3.org/2000/svg"
 width="842.000000pt" height="276.000000pt" viewBox="0 0 842.000000 276.000000"
 preserveAspectRatio="xMidYMid meet">

<g transform="translate(0.000000,276.000000) scale(0.100000,-0.100000)"
fill="#000000" stroke="none">
<path d="M2370 2546 c-272 -58 -469 -200 -610 -441 -27 -46 -20 -40 35 30 61
77 123 134 203 186 125 82 257 119 423 119 273 0 498 -121 655 -351 l49 -71
40 9 c22 4 78 8 125 8 74 0 93 -4 145 -29 76 -38 144 -105 180 -181 26 -53 29
-71 29 -155 0 -84 -3 -102 -28 -153 -36 -74 -109 -147 -183 -183 -56 -28 -64
-29 -245 -32 l-187 -4 -3 126 -3 126 -235 -235 -235 -236 440 3 440 3 67 26
c199 77 328 219 378 415 53 207 -4 410 -159 564 -117 116 -247 170 -411 170
l-76 0 -44 46 c-96 98 -229 176 -377 220 -109 32 -309 42 -413 20z"/>
<path d="M4345 2115 l-25 -24 0 -396 c0 -253 4 -403 10 -416 6 -10 25 -26 42
-35 42 -22 90 -11 123 27 l26 31 -3 395 -3 395 -28 24 c-40 34 -108 34 -142
-1z"/>
<path d="M4857 2120 c-51 -40 -43 -126 14 -155 16 -9 56 -15 94 -15 l65 0 0
-326 c0 -204 4 -332 10 -345 29 -53 116 -61 161 -13 l24 26 3 328 3 328 75 4
c68 3 79 6 100 31 32 38 32 86 -2 126 l-26 31 -248 0 c-233 0 -249 -1 -273
-20z"/>
<path d="M5670 2117 c-50 -25 -103 -94 -120 -155 -15 -54 -12 -152 5 -203 20
-59 66 -114 118 -142 38 -20 58 -22 234 -25 176 -3 193 -5 209 -24 24 -26 24
-90 0 -117 -17 -19 -32 -20 -247 -23 l-229 -3 -27 -27 c-38 -39 -38 -97 0
-135 l27 -28 233 -3 c278 -4 321 2 382 59 87 80 115 232 65 346 -27 63 -94
127 -146 142 -22 6 -117 11 -211 11 -160 0 -175 2 -193 20 -13 13 -20 33 -20
60 0 27 7 47 20 60 19 19 33 20 235 20 173 0 222 3 245 15 56 29 67 93 24 144
l-26 31 -266 0 c-258 -1 -269 -1 -312 -23z"/>
<path d="M6594 2121 c-209 -95 -179 -470 42 -521 21 -5 114 -10 206 -10 159 0
168 -1 188 -22 30 -33 23 -106 -14 -130 -6 -4 -105 -8 -219 -8 -221 0 -264 -7
-286 -48 -19 -36 -13 -89 13 -119 l24 -28 224 -3 c276 -4 314 0 375 41 157
105 145 402 -19 489 -39 21 -60 23 -240 28 -182 5 -198 7 -212 25 -22 28 -20
78 4 108 l21 26 229 3 c226 3 229 3 254 27 36 34 37 101 1 136 l-24 25 -263 0
c-234 0 -267 -2 -304 -19z"/>
</g>
</svg>
